<svg xmlns="http://www.w3.org/2000/svg" xmlns:xlink="http://www.w3.org/1999/xlink" id="Layer_1" width="200.86" height="30" x="0" y="0" enable-background="new 0 0 200.86 30" version="1.1" viewBox="0 0 200.86 30" xml:space="preserve"><rect width="23.864" height="1.058" x="144.558" y="28.442" fill="#FFF"/><rect width="19.636" height="1.058" x="146.672" y="15" fill="#FFF"/><rect width="23.864" height="1.057" x="144.558" y=".5" fill="#FFF"/><polygon fill="#FFF" points="174.69 .5 187 29.5 185.875 29.5 173.564 .5"/><polygon fill="#FFF" points="199.429 .5 198.304 .5 194.786 8.786 195.911 8.786"/><polygon fill="#FFF" points="122.808 29.5 115.558 29.5 115.558 22.25 116.614 22.25 116.614 28.442 122.808 28.442"/><path fill="#FFF" d="M123.821,0.5h-8.286V15h-7.25v1.035h8.286v-14.5h7.25c8.008,0,14.5,6.492,14.5,14.5h1.035	C139.356,7.456,132.401,0.5,123.821,0.5"/><polygon fill="#FFF" points="98.846 .5 86.536 29.5 87.661 29.5 99.971 .5"/><polygon fill="#FFF" points="71.032 29.5 69.964 29.5 69.964 16.035 51.322 16.035 51.322 29.5 50.286 29.5 50.286 .5 51.322 .5 51.322 15 69.964 15 69.964 .5 71.032 .5"/><polygon fill="#FFF" points="45.107 1.536 34.75 1.536 34.75 29.5 33.714 29.5 33.714 1.536 23.357 1.536 23.357 .5 45.107 .5"/><polygon fill="#FFF" points="16.068 16.035 1.639 16.035 1.639 28.465 18.179 28.465 18.179 29.5 .571 29.5 .571 .5 18.179 .5 18.179 1.536 1.639 1.536 1.639 15 16.068 15"/></svg>