<?xml version="1.0" encoding="utf-8"?>
<!-- Generator: Adobe Illustrator 18.1.1, SVG Export Plug-In . SVG Version: 6.00 Build 0)  -->
<svg version="1.1" id="Layer_1" xmlns="http://www.w3.org/2000/svg" xmlns:xlink="http://www.w3.org/1999/xlink" x="0px" y="0px"
	 viewBox="0 0 1920 1080" enable-background="new 0 0 1920 1080" xml:space="preserve">
<g>
	<path fill="#FFFFFF" d="M173.2,612.8c0,4.3-3.5,7.7-7.8,7.7H15.6c3.8,37,31.6,70.8,70.8,70.8c26.8,0,46.7-10.2,61.7-31.6
		c2.2-2.9,5.4-4.8,9.6-3.1c2.2,0.9,3.9,3,4.3,5.4c0.4,2.5-0.3,3.8-0.9,5.2c-15,26.3-45,39.2-74.5,39.2C35.9,706.3,0,661.2,0,613
		c0-48.3,35.9-93.3,86.3-93.3C136.7,519.6,173.1,564.6,173.2,612.8z M157.1,605.5c-3.2-37-31.6-70.8-70.8-70.8s-67,33.8-70.8,70.8
		H157.1z"/>
	<path fill="#FFFFFF" d="M355,523.4c4.3,0,7.5,3.8,7.5,7.5c0,4.3-3.2,7.5-7.5,7.5h-40.2v157.7c0,3.8-3.2,7.5-7.5,7.5
		c-4.3,0-7.5-3.8-7.5-7.5V538.4h-38.6c-4.3,0-7.5-3.2-7.5-7.5c0-3.8,3.2-7.5,7.5-7.5h38.6v-57.7c0-3.6,2.5-7,6.1-7.6
		c5-0.8,9,2.6,9,7.4v57.9H355z"/>
	<path fill="#FFFFFF" d="M600.1,599.6V695c0,4.3-3.8,7.5-7.5,7.5c-4.3,0-7.5-3.2-7.5-7.5v-95.5c0-32.2-18.2-64.4-54.2-64.4
		c-46.1,0-66,40.2-63.3,81.5c0,1.1,0.5,5.9,0.5,6.4v71.7c0,3.6-2.5,7-6.1,7.6c-5,0.8-9-2.6-9-7.4V381.3c0-3.8,3.2-7.5,7.5-7.5
		c4.3,0,7.5,3.8,7.5,7.5v177.5c12.9-23.1,35.9-38.6,62.7-38.6C574.9,520.2,600.1,558.8,600.1,599.6z"/>
	<path fill="#FFFFFF" d="M868.8,612.8c0,4.3-3.5,7.7-7.8,7.7H711.2c3.8,37,31.6,70.8,70.8,70.8c26.8,0,46.7-10.2,61.7-31.6
		c2.2-2.9,5.4-4.8,9.6-3.1c2.2,0.9,3.9,3,4.3,5.4c0.4,2.5-0.3,3.8-0.9,5.2c-15,26.3-45,39.2-74.5,39.2c-50.4,0-86.3-45-86.3-93.3
		c0-48.3,35.9-93.3,86.3-93.3C832.3,519.6,868.7,564.6,868.8,612.8z M852.7,605.5c-3.2-37-31.6-70.8-70.8-70.8s-67,33.8-70.8,70.8
		H852.7z"/>
	<path fill="#FFFFFF" d="M1052.8,530.4c0,4.8-2.7,7.5-7,8c-44,6.4-63.8,42.4-63.8,84.2v71.7c0,3.6-2.5,7-6.1,7.6c-5,0.8-9-2.6-9-7.4
		V531.1c0-3.6,2.5-7,6.1-7.6c5-0.8,9,2.6,9,7.4v33.3c12.3-20.9,37-40.8,62.7-40.8C1048.5,523.4,1052.8,526.1,1052.8,530.4z"/>
	<path fill="#FFFFFF" d="M1299,612.8c0,4.3-3.5,7.7-7.8,7.7h-149.9c3.8,37,31.6,70.8,70.8,70.8c26.8,0,46.7-10.2,61.7-31.6
		c2.2-2.9,5.4-4.8,9.6-3.1c2.2,0.9,3.9,3,4.3,5.4c0.4,2.5-0.3,3.8-0.9,5.2c-15,26.3-45,39.2-74.5,39.2c-50.4,0-86.3-45-86.3-93.3
		c0-48.3,35.9-93.3,86.3-93.3C1262.4,519.6,1298.9,564.6,1299,612.8z M1282.9,605.5c-3.2-37-31.6-70.8-70.8-70.8s-67,33.8-70.8,70.8
		H1282.9z"/>
	<path fill="#FFFFFF" d="M1540.8,532.3V584v112.1c0,4.3-3.8,7.5-7.5,7.5c-4.3,0-7.5-3.2-7.5-7.5V665c-12.3,24.7-34.3,42.4-62.2,42.4
		c-44.5,0-69.2-38.6-69.2-79.4v-96c0-3.8,3.2-7.5,7.5-7.5c4.3,0,7.5,3.8,7.5,7.5v96c0,32.2,18.2,64.4,54.2,64.4
		c50.4,0,62.2-47.2,62.2-99.2V532c0-4.4,4.3-8.7,9.7-7.2C1538.7,525.7,1540.8,528.9,1540.8,532.3z"/>
	<path fill="#FFFFFF" d="M1920,599v96c0,4.3-3.8,7.5-7.5,7.5c-4.3,0-7.5-3.2-7.5-7.5v-96c0-32.2-18.2-63.8-54.2-63.8
		c-45,0-62.2,48.3-62.2,85.8v74c0,4.3-3.8,7.5-7.5,7.5c-4.3,0-7.5-3.2-7.5-7.5v-96c0-32.2-18.2-63.8-54.2-63.8
		c-45.6,0-64.4,35.9-62.7,83.7c0,1.1,0.5,3.2,0,3.8v72.2c0,3.6-2.5,7-6.1,7.6c-5,0.8-9-2.6-9-7.4V531.1c0-3.6,2.5-7,6.1-7.6
		c5-0.8,9,2.6,9,7.4v27.4c12.9-23.1,35.9-38.1,62.7-38.1c30.6,0,54.2,19.3,63.8,47.7c12.3-27.9,36.5-47.7,67.6-47.7
		C1894.8,520.2,1920,558.3,1920,599z"/>
</g>
</svg>
